<?xml version="1.0" encoding="utf-8"?>
<!-- Generator: Adobe Illustrator 15.0.0, SVG Export Plug-In . SVG Version: 6.00 Build 0)  -->
<!DOCTYPE svg PUBLIC "-//W3C//DTD SVG 1.1//EN" "http://www.w3.org/Graphics/SVG/1.1/DTD/svg11.dtd">
<svg version="1.1" id="图层_1" xmlns="http://www.w3.org/2000/svg" xmlns:xlink="http://www.w3.org/1999/xlink" x="0px" y="0px"
	 width="296px" height="263.5px" viewBox="0 0 296 263.5" enable-background="new 0 0 296 263.5" xml:space="preserve">
<g>
	<path fill-rule="evenodd" clip-rule="evenodd" d="M119.64,12.92C89.894,18.183,70.72,43.255,60.6,73.4
		c-3.641,10.845-6.839,26.939-9.36,41.76c-2.556,15.021-4.449,32.437-16.56,33.84c-19.069,2.21-27.518-33.188-29.52-49.68
		c-5.221-42.994,10.026-70.425,35.28-84.96c17.378-10.002,40.966-13.66,64.8-7.2C110.23,8.513,116.114,9.094,119.64,12.92z"/>
	<path fill-rule="evenodd" clip-rule="evenodd" d="M174.36,12.2c33.771-18.596,80.551-5.389,100.08,18.72
		c11.089,13.689,17.104,39.231,14.399,65.52c-2.123,20.65-9.915,53.129-28.08,52.56c-17.935-0.563-18.57-37.519-22.319-56.16
		c-4.33-21.529-11.79-40.042-23.761-54.72C203.887,24.886,193.141,16.767,174.36,12.2z"/>
	<path fill-rule="evenodd" clip-rule="evenodd" d="M89.4,77c20.347-5.022,20.518,25.796,2.16,24.48
		C81.077,100.729,73.841,80.841,89.4,77z"/>
	<path fill-rule="evenodd" clip-rule="evenodd" d="M193.08,77c18.996-4.561,20.662,24.084,3.6,24.48
		C182.307,101.813,178.71,80.45,193.08,77z"/>
	<path fill-rule="evenodd" clip-rule="evenodd" d="M124.68,159.8c-14.352,0.714-0.582-14.045,1.44-5.04
		C126.68,157.254,125.545,157.489,124.68,159.8z"/>
	<path fill-rule="evenodd" clip-rule="evenodd" d="M169.32,159.8c-5.951-7.233,6.093-10.784,6.479-4.319
		C175.941,157.84,174.346,160.606,169.32,159.8z"/>
	<path fill-rule="evenodd" clip-rule="evenodd" d="M110.28,166.28c-2.436,1.893-5.833,1.824-7.2,0
		C98.531,160.207,113.644,156.06,110.28,166.28z"/>
	<path fill-rule="evenodd" clip-rule="evenodd" d="M190.92,166.28c-8.033,6.487-10.692-10.102-0.72-5.761
		C190.636,162.244,191.235,163.805,190.92,166.28z"/>
	<path fill-rule="evenodd" clip-rule="evenodd" d="M121.08,171.32c5.553-3.771,7.883,10.1-0.72,7.199
		C118.325,176.905,116.913,171.738,121.08,171.32z"/>
	<path fill-rule="evenodd" clip-rule="evenodd" d="M169.32,178.52c-5.958-7.165,6.157-10.727,6.479-4.319
		C175.907,176.335,174.482,179.396,169.32,178.52z"/>
	<path fill-rule="evenodd" clip-rule="evenodd" d="M205.32,154.76c-5.92,2.448-3.59,8.926-5.04,12.96
		c-6.415,17.85-28.903,26.589-50.4,27.36c0-14.4,0-28.8,0-43.2c9.25-5.982,23.859-13.109,27.36-24.48
		c6.57-21.342-21.688-30.043-30.24-12.24c-7.119-15.084-32.047-11.672-30.96,7.92c0.859,15.474,19.542,21.791,28.08,29.52
		c0,14.4,0,28.801,0,43.2c-23.127-2.762-44.042-9.861-50.4-28.8c-1.151-3.427,0.541-11.63-5.76-12.24
		c-3.328,7.406,0.123,16.261,3.6,21.601c5.577,8.564,15.078,13.831,23.04,18.72c-4.303,22.913,3.18,48.978,17.28,59.04
		c4.648,3.316,13.052,5.834,20.88,4.32c20.164-3.901,32.245-38.547,26.641-64.08c11.642-5.292,24.125-14.826,27.359-28.08
		C207.561,163.001,209.386,156.97,205.32,154.76z M159.24,249.08c-6.159,4.305-18.464,4.844-25.2-0.72
		c-10.78-8.903-17.597-31.29-13.68-48.96c0-0.721,0-1.44,0-2.16c7.348,2.013,15.185,3.534,23.76,4.319
		c0.724,9.805-0.949,22.749,0,33.841c0.259,3.025-1.153,7.373,2.88,7.92c4.888-2.408,2.88-12.295,2.88-19.44
		c0-7.748,0-15.83,0-22.32c8.708-0.652,16.405-2.314,23.76-4.319C177.03,216.996,171.5,240.51,159.24,249.08z"/>
</g>
</svg>
